<svg version="1.1" xmlns="http://www.w3.org/2000/svg" xmlns:xlink="http://www.w3.org/1999/xlink" width="135.208984375" height="264"><defs/><g><g transform="translate(-238,-198) scale(1,1)"><rect fill="#C0C0C0" stroke="none" x="255" y="415" width="115.208984375" height="44" opacity="0.2"/></g><g transform="translate(-238,-198) scale(1,1)"><rect fill="#ffffff" stroke="none" x="248" y="408" width="115.208984375" height="44"/></g><g transform="translate(-238,-198) scale(1,1)"><path fill="none" stroke="#000000" d="M 248 408 L 363.208984375 408 L 363.208984375 452 L 248 452 L 248 408 Z Z" stroke-miterlimit="10"/></g><g transform="translate(-238,-198) scale(1,1)"><path fill="none" stroke="#000000" d="M 248 433 L 363.208984375 433" stroke-miterlimit="10"/></g><g transform="translate(-238,-198) scale(1,1)"><path fill="none" stroke="#000000" d="M 248 443 L 363.208984375 443" stroke-miterlimit="10"/></g><g transform="translate(-238,-198) scale(1,1)"><g><path fill="none" stroke="none"/><text fill="#000000" stroke="none" font-family="Arial" font-size="13px" font-style="normal" font-weight="bold" text-decoration="none" x="256.952880859375" y="427.5">SecurityValidator</text></g></g><g transform="translate(-238,-198) scale(1,1)"><rect fill="#C0C0C0" stroke="none" x="271" y="215" width="98.59716796875" height="44" opacity="0.2"/></g><g transform="translate(-238,-198) scale(1,1)"><rect fill="#ffffff" stroke="none" x="264" y="208" width="98.59716796875" height="44"/></g><g transform="translate(-238,-198) scale(1,1)"><path fill="none" stroke="#000000" d="M 264 208 L 362.59716796875 208 L 362.59716796875 252 L 264 252 L 264 208 Z Z" stroke-miterlimit="10"/></g><g transform="translate(-238,-198) scale(1,1)"><path fill="none" stroke="#000000" d="M 264 233 L 362.59716796875 233" stroke-miterlimit="10"/></g><g transform="translate(-238,-198) scale(1,1)"><path fill="none" stroke="#000000" d="M 264 243 L 362.59716796875 243" stroke-miterlimit="10"/></g><g transform="translate(-238,-198) scale(1,1)"><g><path fill="none" stroke="none"/><text fill="#000000" stroke="none" font-family="Arial" font-size="13px" font-style="normal" font-weight="bold" text-decoration="none" x="272.47998046875" y="227.5">SecurityPolicy</text></g></g></g></svg>