<svg version="1.1" xmlns="http://www.w3.org/2000/svg" xmlns:xlink="http://www.w3.org/1999/xlink" width="651.96240234375" height="315"><defs/><g><g transform="translate(-206,-62) scale(1,1)"><rect fill="#C0C0C0" stroke="none" x="295" y="79" width="109.38242187499998" height="15" opacity="0.2"/></g><g transform="translate(-206,-62) scale(1,1)"><rect fill="#C0C0C0" stroke="none" x="295" y="93" width="273.4560546875" height="25" opacity="0.2"/></g><g transform="translate(-206,-62) scale(1,1)"><rect fill="#ffffff" stroke="none" x="288" y="87" width="273.4560546875" height="24"/></g><g transform="translate(-206,-62) scale(1,1)"><path fill="none" stroke="#000000" d="M 288 87 L 561.4560546875 87 L 561.4560546875 111 L 288 111 L 288 87 Z Z" stroke-miterlimit="10"/></g><g transform="translate(-206,-62) scale(1,1)"><rect fill="#ffffff" stroke="none" x="288" y="72" width="109.38242187499998" height="15"/></g><g transform="translate(-206,-62) scale(1,1)"><path fill="none" stroke="#000000" d="M 288 72 L 397.382421875 72 L 397.382421875 87 L 288 87 L 288 72 Z Z" stroke-miterlimit="10"/></g><g transform="translate(-206,-62) scale(1,1)"><rect fill="#ffffff" stroke="none" x="288" y="86" width="273.4560546875" height="25"/></g><g transform="translate(-206,-62) scale(1,1)"><path fill="none" stroke="#000000" d="M 288 86 L 561.4560546875 86 L 561.4560546875 111 L 288 111 L 288 86 Z Z" stroke-miterlimit="10"/></g><g transform="translate(-206,-62) scale(1,1)"><g><path fill="none" stroke="none"/><text fill="#000000" stroke="none" font-family="Arial" font-size="13px" font-style="normal" font-weight="bold" text-decoration="none" x="301.885009765625" y="106.5">io.anindya.JavaUniversalBackend.Security</text></g></g><g transform="translate(-206,-62) scale(1,1)"><rect fill="#C0C0C0" stroke="none" x="295" y="335" width="110.82460937500002" height="15" opacity="0.2"/></g><g transform="translate(-206,-62) scale(1,1)"><rect fill="#C0C0C0" stroke="none" x="295" y="349" width="277.0615234375" height="25" opacity="0.2"/></g><g transform="translate(-206,-62) scale(1,1)"><rect fill="#ffffff" stroke="none" x="288" y="343" width="277.0615234375" height="24"/></g><g transform="translate(-206,-62) scale(1,1)"><path fill="none" stroke="#000000" d="M 288 343 L 565.0615234375 343 L 565.0615234375 367 L 288 367 L 288 343 Z Z" stroke-miterlimit="10"/></g><g transform="translate(-206,-62) scale(1,1)"><rect fill="#ffffff" stroke="none" x="288" y="328" width="110.82460937500002" height="15"/></g><g transform="translate(-206,-62) scale(1,1)"><path fill="none" stroke="#000000" d="M 288 328 L 398.824609375 328 L 398.824609375 343 L 288 343 L 288 328 Z Z" stroke-miterlimit="10"/></g><g transform="translate(-206,-62) scale(1,1)"><rect fill="#ffffff" stroke="none" x="288" y="342" width="277.0615234375" height="25"/></g><g transform="translate(-206,-62) scale(1,1)"><path fill="none" stroke="#000000" d="M 288 342 L 565.0615234375 342 L 565.0615234375 367 L 288 367 L 288 342 Z Z" stroke-miterlimit="10"/></g><g transform="translate(-206,-62) scale(1,1)"><g><path fill="none" stroke="none"/><text fill="#000000" stroke="none" font-family="Arial" font-size="13px" font-style="normal" font-weight="bold" text-decoration="none" x="301.99609375" y="362.5">io.anindya.JavaUniversalBackend.Validator</text></g></g><g transform="translate(-206,-62) scale(1,1)"><rect fill="#C0C0C0" stroke="none" x="575" y="207" width="111.98496093749998" height="15" opacity="0.2"/></g><g transform="translate(-206,-62) scale(1,1)"><rect fill="#C0C0C0" stroke="none" x="575" y="221" width="279.96240234375" height="25" opacity="0.2"/></g><g transform="translate(-206,-62) scale(1,1)"><rect fill="#ffffff" stroke="none" x="568" y="215" width="279.96240234375" height="24"/></g><g transform="translate(-206,-62) scale(1,1)"><path fill="none" stroke="#000000" d="M 568 215 L 847.96240234375 215 L 847.96240234375 239 L 568 239 L 568 215 Z Z" stroke-miterlimit="10"/></g><g transform="translate(-206,-62) scale(1,1)"><rect fill="#ffffff" stroke="none" x="568" y="200" width="111.98496093749998" height="15"/></g><g transform="translate(-206,-62) scale(1,1)"><path fill="none" stroke="#000000" d="M 568 200 L 679.9849609375 200 L 679.9849609375 215 L 568 215 L 568 200 Z Z" stroke-miterlimit="10"/></g><g transform="translate(-206,-62) scale(1,1)"><rect fill="#ffffff" stroke="none" x="568" y="214" width="279.96240234375" height="25"/></g><g transform="translate(-206,-62) scale(1,1)"><path fill="none" stroke="#000000" d="M 568 214 L 847.96240234375 214 L 847.96240234375 239 L 568 239 L 568 214 Z Z" stroke-miterlimit="10"/></g><g transform="translate(-206,-62) scale(1,1)"><g><path fill="none" stroke="none"/><text fill="#000000" stroke="none" font-family="Arial" font-size="13px" font-style="normal" font-weight="bold" text-decoration="none" x="580.793212890625" y="234.5">io.anindya.JavaUniversalBackend.Database</text></g></g><g transform="translate(-206,-62) scale(1,1)"><rect fill="#C0C0C0" stroke="none" x="223" y="207" width="113.70644531250002" height="15" opacity="0.2"/></g><g transform="translate(-206,-62) scale(1,1)"><rect fill="#C0C0C0" stroke="none" x="223" y="221" width="284.26611328125" height="25" opacity="0.2"/></g><g transform="translate(-206,-62) scale(1,1)"><rect fill="#ffffff" stroke="none" x="216" y="215" width="284.26611328125" height="24"/></g><g transform="translate(-206,-62) scale(1,1)"><path fill="none" stroke="#000000" d="M 216 215 L 500.26611328125 215 L 500.26611328125 239 L 216 239 L 216 215 Z Z" stroke-miterlimit="10"/></g><g transform="translate(-206,-62) scale(1,1)"><rect fill="#ffffff" stroke="none" x="216" y="200" width="113.70644531250002" height="15"/></g><g transform="translate(-206,-62) scale(1,1)"><path fill="none" stroke="#000000" d="M 216 200 L 329.7064453125 200 L 329.7064453125 215 L 216 215 L 216 200 Z Z" stroke-miterlimit="10"/></g><g transform="translate(-206,-62) scale(1,1)"><rect fill="#ffffff" stroke="none" x="216" y="214" width="284.26611328125" height="25"/></g><g transform="translate(-206,-62) scale(1,1)"><path fill="none" stroke="#000000" d="M 216 214 L 500.26611328125 214 L 500.26611328125 239 L 216 239 L 216 214 Z Z" stroke-miterlimit="10"/></g><g transform="translate(-206,-62) scale(1,1)"><g><path fill="none" stroke="none"/><text fill="#000000" stroke="none" font-family="Arial" font-size="13px" font-style="normal" font-weight="bold" text-decoration="none" x="230.5927734375" y="234.5">io.anindya.JavaUniversalBackend.Controller</text></g></g></g></svg>