<svg version="1.1" xmlns="http://www.w3.org/2000/svg" xmlns:xlink="http://www.w3.org/1999/xlink" width="1122.6416015625" height="476"><defs/><g><g transform="translate(-166,10) scale(1,1)"><path fill="none" stroke="#000000" d="M 448 0 L 1048 0 L 1048 456 L 448 456 L 448 0" stroke-miterlimit="10"/></g><g transform="translate(-166,10) scale(1,1)"><path fill="#ffffff" stroke="none" d="M 448 0 L 448 22 L 745.7978515625 22 L 756.7978515625 11 L 756.7978515625 0 L 448 0"/></g><g transform="translate(-166,10) scale(1,1)"><path fill="none" stroke="#000000" d="M 448 0 L 448 22 L 745.7978515625 22 L 756.7978515625 11 L 756.7978515625 0 L 448 0 L 448 0" stroke-miterlimit="10"/></g><g transform="translate(-166,10) scale(1,1)"><g><path fill="none" stroke="none"/><text fill="#000000" stroke="none" font-family="Arial" font-size="13px" font-style="normal" font-weight="normal" text-decoration="none" x="511.03173828125" y="17.5">UseCaseDiagramDeveloperPerspective</text></g></g><g transform="translate(-166,10) scale(1,1)"><g><path fill="none" stroke="none"/><text fill="#000000" stroke="none" font-family="Arial" font-size="13px" font-style="normal" font-weight="bold" text-decoration="none" x="453" y="17.5">use case</text></g></g><g transform="translate(-166,10) scale(1,1)"><path fill="#ffffff" stroke="none" d="M 203.25114719460228 225.68 C 203.25114719460228 220.886167936 207.13698951954774 217 211.930419921875 217 C 216.72385032420226 217 220.60969264914772 220.886167936 220.60969264914772 225.68 C 220.60969264914772 230.47383206400002 216.72385032420226 234.36 211.930419921875 234.36 C 207.13698951954774 234.36 203.25114719460228 230.47383206400002 203.25114719460228 225.68 Z"/></g><g transform="translate(-166,10) scale(1,1)"><path fill="none" stroke="#000000" d="M 203.25114719460228 225.68 C 203.25114719460228 220.886167936 207.13698951954774 217 211.930419921875 217 C 216.72385032420226 217 220.60969264914772 220.886167936 220.60969264914772 225.68 C 220.60969264914772 230.47383206400002 216.72385032420226 234.36 211.930419921875 234.36 C 207.13698951954774 234.36 203.25114719460228 230.47383206400002 203.25114719460228 225.68 Z" stroke-miterlimit="10"/></g><g transform="translate(-166,10) scale(1,1)"><path fill="none" stroke="#000000" d="M 211.930419921875 234.36 L 211.930419921875 251.64" stroke-miterlimit="10"/></g><g transform="translate(-166,10) scale(1,1)"><path fill="none" stroke="#000000" d="M 202.74060174005683 240.84 L 221.12023810369317 240.84" stroke-miterlimit="10"/></g><g transform="translate(-166,10) scale(1,1)"><path fill="none" stroke="#000000" d="M 211.930419921875 251.64 L 199.16678355823865 269" stroke-miterlimit="10"/></g><g transform="translate(-166,10) scale(1,1)"><path fill="none" stroke="#000000" d="M 211.930419921875 251.64 L 224.69405628551135 269" stroke-miterlimit="10"/></g><g transform="translate(-166,10) scale(1,1)"><g><path fill="none" stroke="none"/><text fill="#000000" stroke="none" font-family="Arial" font-size="13px" font-style="normal" font-weight="bold" text-decoration="none" x="182.302734375" y="289.5">Developer</text></g></g><g transform="translate(-166,10) scale(1,1)"><path fill="#C0C0C0" stroke="none" d="M 531 56 C 531 46.6111584 563.9070672 39 604.5 39 C 645.0929328 39 678 46.6111584 678 56 C 678 65.3888416 645.0929328 73 604.5 73 C 563.9070672 73 531 65.3888416 531 56 Z" opacity="0.2"/></g><g transform="translate(-166,10) scale(1,1)"><path fill="#ffffff" stroke="none" d="M 524 49 C 524 39.6111584 556.9070672 32 597.5 32 C 638.0929328 32 671 39.6111584 671 49 C 671 58.3888416 638.0929328 66 597.5 66 C 556.9070672 66 524 58.3888416 524 49 Z"/></g><g transform="translate(-166,10) scale(1,1)"><path fill="none" stroke="#000000" d="M 524 49 C 524 39.6111584 556.9070672 32 597.5 32 C 638.0929328 32 671 39.6111584 671 49 C 671 58.3888416 638.0929328 66 597.5 66 C 556.9070672 66 524 58.3888416 524 49 Z" stroke-miterlimit="10"/></g><g transform="translate(-166,10) scale(1,1)"><g><path fill="none" stroke="none"/><text fill="#000000" stroke="none" font-family="Arial" font-size="13px" font-style="normal" font-weight="bold" text-decoration="none" x="554.13916015625" y="56">Login to Admin</text></g></g><g transform="translate(-166,10) scale(1,1)"><path fill="#C0C0C0" stroke="none" d="M 511 216 C 511 206.6111584 569.202976 199 641 199 C 712.797024 199 771 206.6111584 771 216 C 771 225.3888416 712.797024 233 641 233 C 569.202976 233 511 225.3888416 511 216 Z" opacity="0.2"/></g><g transform="translate(-166,10) scale(1,1)"><path fill="#ffffff" stroke="none" d="M 504 209 C 504 199.6111584 562.202976 192 634 192 C 705.797024 192 764 199.6111584 764 209 C 764 218.3888416 705.797024 226 634 226 C 562.202976 226 504 218.3888416 504 209 Z"/></g><g transform="translate(-166,10) scale(1,1)"><path fill="none" stroke="#000000" d="M 504 209 C 504 199.6111584 562.202976 192 634 192 C 705.797024 192 764 199.6111584 764 209 C 764 218.3888416 705.797024 226 634 226 C 562.202976 226 504 218.3888416 504 209 Z" stroke-miterlimit="10"/></g><g transform="translate(-166,10) scale(1,1)"><g><path fill="none" stroke="none"/><text fill="#000000" stroke="none" font-family="Arial" font-size="13px" font-style="normal" font-weight="bold" text-decoration="none" x="551.629638671875" y="216">Create Documents Template</text></g></g><g transform="translate(-166,10) scale(1,1)"><path fill="#C0C0C0" stroke="none" d="M 503 128 C 503 118.6111584 544.6375136 111 596 111 C 647.3624864 111 689 118.6111584 689 128 C 689 137.3888416 647.3624864 145 596 145 C 544.6375136 145 503 137.3888416 503 128 Z" opacity="0.2"/></g><g transform="translate(-166,10) scale(1,1)"><path fill="#ffffff" stroke="none" d="M 496 121 C 496 111.6111584 537.6375136 104 589 104 C 640.3624864 104 682 111.6111584 682 121 C 682 130.3888416 640.3624864 138 589 138 C 537.6375136 138 496 130.3888416 496 121 Z"/></g><g transform="translate(-166,10) scale(1,1)"><path fill="none" stroke="#000000" d="M 496 121 C 496 111.6111584 537.6375136 104 589 104 C 640.3624864 104 682 111.6111584 682 121 C 682 130.3888416 640.3624864 138 589 138 C 537.6375136 138 496 130.3888416 496 121 Z" stroke-miterlimit="10"/></g><g transform="translate(-166,10) scale(1,1)"><g><path fill="none" stroke="none"/><text fill="#000000" stroke="none" font-family="Arial" font-size="13px" font-style="normal" font-weight="bold" text-decoration="none" x="530.839599609375" y="128">Create User Groups</text></g></g><g transform="translate(-166,10) scale(1,1)"><path fill="#C0C0C0" stroke="none" d="M 499 280 C 499 270.6111584 546.010096 263 604 263 C 661.989904 263 709 270.6111584 709 280 C 709 289.3888416 661.989904 297 604 297 C 546.010096 297 499 289.3888416 499 280 Z" opacity="0.2"/></g><g transform="translate(-166,10) scale(1,1)"><path fill="#ffffff" stroke="none" d="M 492 273 C 492 263.6111584 539.010096 256 597 256 C 654.989904 256 702 263.6111584 702 273 C 702 282.3888416 654.989904 290 597 290 C 539.010096 290 492 282.3888416 492 273 Z"/></g><g transform="translate(-166,10) scale(1,1)"><path fill="none" stroke="#000000" d="M 492 273 C 492 263.6111584 539.010096 256 597 256 C 654.989904 256 702 263.6111584 702 273 C 702 282.3888416 654.989904 290 597 290 C 539.010096 290 492 282.3888416 492 273 Z" stroke-miterlimit="10"/></g><g transform="translate(-166,10) scale(1,1)"><g><path fill="none" stroke="none"/><text fill="#000000" stroke="none" font-family="Arial" font-size="13px" font-style="normal" font-weight="bold" text-decoration="none" x="532.695068359375" y="280">Document Constraints</text></g></g><g transform="translate(-166,10) scale(1,1)"><path fill="#C0C0C0" stroke="none" d="M 480 344 C 480 334.6111584 535.7405424 327 604.5 327 C 673.2594576 327 729 334.6111584 729 344 C 729 353.3888416 673.2594576 361 604.5 361 C 535.7405424 361 480 353.3888416 480 344 Z" opacity="0.2"/></g><g transform="translate(-166,10) scale(1,1)"><path fill="#ffffff" stroke="none" d="M 473 337 C 473 327.6111584 528.7405424 320 597.5 320 C 666.2594576 320 722 327.6111584 722 337 C 722 346.3888416 666.2594576 354 597.5 354 C 528.7405424 354 473 346.3888416 473 337 Z"/></g><g transform="translate(-166,10) scale(1,1)"><path fill="none" stroke="#000000" d="M 473 337 C 473 327.6111584 528.7405424 320 597.5 320 C 666.2594576 320 722 327.6111584 722 337 C 722 346.3888416 666.2594576 354 597.5 354 C 528.7405424 354 473 346.3888416 473 337 Z" stroke-miterlimit="10"/></g><g transform="translate(-166,10) scale(1,1)"><g><path fill="none" stroke="none"/><text fill="#000000" stroke="none" font-family="Arial" font-size="13px" font-style="normal" font-weight="bold" text-decoration="none" x="520.54736328125" y="344">Setup Security Constraints</text></g></g><g transform="translate(-166,10) scale(1,1)"><path fill="none" stroke="#000000" d="M 249 235 L 563 67" stroke-miterlimit="10"/></g><g transform="translate(-166,10) scale(1,1)"><path fill="none" stroke="#000000" d="M 249 242 L 538 139" stroke-miterlimit="10"/></g><g transform="translate(-166,10) scale(1,1)"><path fill="none" stroke="#000000" d="M 249 251 L 503 223" stroke-miterlimit="10"/></g><g transform="translate(-166,10) scale(1,1)"><path fill="none" stroke="#000000" d="M 249 257 L 491 268" stroke-miterlimit="10"/></g><g transform="translate(-166,10) scale(1,1)"><path fill="none" stroke="#000000" d="M 249 263 L 512 319" stroke-miterlimit="10"/></g><g transform="translate(-166,10) scale(1,1)"><path fill="#C0C0C0" stroke="none" d="M 511 392 C 511 382.6111584 550.8466528 375 600 375 C 649.1533472 375 689 382.6111584 689 392 C 689 401.3888416 649.1533472 409 600 409 C 550.8466528 409 511 401.3888416 511 392 Z" opacity="0.2"/></g><g transform="translate(-166,10) scale(1,1)"><path fill="#ffffff" stroke="none" d="M 504 385 C 504 375.6111584 543.8466528 368 593 368 C 642.1533472 368 682 375.6111584 682 385 C 682 394.3888416 642.1533472 402 593 402 C 543.8466528 402 504 394.3888416 504 385 Z"/></g><g transform="translate(-166,10) scale(1,1)"><path fill="none" stroke="#000000" d="M 504 385 C 504 375.6111584 543.8466528 368 593 368 C 642.1533472 368 682 375.6111584 682 385 C 682 394.3888416 642.1533472 402 593 402 C 543.8466528 402 504 394.3888416 504 385 Z" stroke-miterlimit="10"/></g><g transform="translate(-166,10) scale(1,1)"><g><path fill="none" stroke="none"/><text fill="#000000" stroke="none" font-family="Arial" font-size="13px" font-style="normal" font-weight="bold" text-decoration="none" x="537.0009765625" y="392">Generate API Docs</text></g></g><g transform="translate(-166,10) scale(1,1)"><path fill="none" stroke="#000000" d="M 249 268 L 540 367" stroke-miterlimit="10"/></g><g transform="translate(-166,10) scale(1,1)"><path fill="#C0C0C0" stroke="none" d="M 799 216 C 799 206.6111584 847.8009568 199 908 199 C 968.1990432 199 1017 206.6111584 1017 216 C 1017 225.3888416 968.1990432 233 908 233 C 847.8009568 233 799 225.3888416 799 216 Z" opacity="0.2"/></g><g transform="translate(-166,10) scale(1,1)"><path fill="#ffffff" stroke="none" d="M 792 209 C 792 199.6111584 840.8009568 192 901 192 C 961.1990432 192 1010 199.6111584 1010 209 C 1010 218.3888416 961.1990432 226 901 226 C 840.8009568 226 792 218.3888416 792 209 Z"/></g><g transform="translate(-166,10) scale(1,1)"><path fill="none" stroke="#000000" d="M 792 209 C 792 199.6111584 840.8009568 192 901 192 C 961.1990432 192 1010 199.6111584 1010 209 C 1010 218.3888416 961.1990432 226 901 226 C 840.8009568 226 792 218.3888416 792 209 Z" stroke-miterlimit="10"/></g><g transform="translate(-166,10) scale(1,1)"><g><path fill="none" stroke="none"/><text fill="#000000" stroke="none" font-family="Arial" font-size="13px" font-style="normal" font-weight="bold" text-decoration="none" x="833.42919921875" y="216">Generate Configuration</text></g></g><g transform="translate(-166,10) scale(1,1)"><path fill="none" stroke="#000000" d="M 653 139 L 837 191" stroke-miterlimit="10"/></g><g transform="translate(-166,10) scale(1,1)"><path fill="none" stroke="#000000" d="M 765 209 L 791 209" stroke-miterlimit="10"/></g><g transform="translate(-166,10) scale(1,1)"><path fill="none" stroke="#000000" d="M 683 255 L 816 227" stroke-miterlimit="10"/></g><g transform="translate(-166,10) scale(1,1)"><path fill="none" stroke="#000000" d="M 640 319 L 858 227" stroke-miterlimit="10"/></g><g transform="translate(-166,10) scale(1,1)"><path fill="#C0C0C0" stroke="none" d="M 823 392 C 823 382.6111584 854.7877792 375 894 375 C 933.2122208 375 965 382.6111584 965 392 C 965 401.3888416 933.2122208 409 894 409 C 854.7877792 409 823 401.3888416 823 392 Z" opacity="0.2"/></g><g transform="translate(-166,10) scale(1,1)"><path fill="#ffffff" stroke="none" d="M 816 385 C 816 375.6111584 847.7877792 368 887 368 C 926.2122208 368 958 375.6111584 958 385 C 958 394.3888416 926.2122208 402 887 402 C 847.7877792 402 816 394.3888416 816 385 Z"/></g><g transform="translate(-166,10) scale(1,1)"><path fill="none" stroke="#000000" d="M 816 385 C 816 375.6111584 847.7877792 368 887 368 C 926.2122208 368 958 375.6111584 958 385 C 958 394.3888416 926.2122208 402 887 402 C 847.7877792 402 816 394.3888416 816 385 Z" stroke-miterlimit="10"/></g><g transform="translate(-166,10) scale(1,1)"><g><path fill="none" stroke="none"/><text fill="#000000" stroke="none" font-family="Arial" font-size="13px" font-style="normal" font-weight="bold" text-decoration="none" x="843.28369140625" y="392">Generate Docs</text></g></g><g transform="translate(-166,10) scale(1,1)"><path fill="none" stroke="#000000" d="M 683 385 L 815 385" stroke-miterlimit="10"/></g><g transform="translate(-166,10) scale(1,1)"><path fill="#ffffff" stroke="none" d="M 1194.6415280539773 185.68 C 1194.6415280539773 180.886167936 1198.5273703789228 177 1203.32080078125 177 C 1208.1142311835772 177 1212.0000735085227 180.886167936 1212.0000735085227 185.68 C 1212.0000735085227 190.47383206400002 1208.1142311835772 194.36 1203.32080078125 194.36 C 1198.5273703789228 194.36 1194.6415280539773 190.47383206400002 1194.6415280539773 185.68 Z"/></g><g transform="translate(-166,10) scale(1,1)"><path fill="none" stroke="#000000" d="M 1194.6415280539773 185.68 C 1194.6415280539773 180.886167936 1198.5273703789228 177 1203.32080078125 177 C 1208.1142311835772 177 1212.0000735085227 180.886167936 1212.0000735085227 185.68 C 1212.0000735085227 190.47383206400002 1208.1142311835772 194.36 1203.32080078125 194.36 C 1198.5273703789228 194.36 1194.6415280539773 190.47383206400002 1194.6415280539773 185.68 Z" stroke-miterlimit="10"/></g><g transform="translate(-166,10) scale(1,1)"><path fill="none" stroke="#000000" d="M 1203.32080078125 194.36 L 1203.32080078125 211.64" stroke-miterlimit="10"/></g><g transform="translate(-166,10) scale(1,1)"><path fill="none" stroke="#000000" d="M 1194.1309825994317 200.84 L 1212.5106189630683 200.84" stroke-miterlimit="10"/></g><g transform="translate(-166,10) scale(1,1)"><path fill="none" stroke="#000000" d="M 1203.32080078125 211.64 L 1190.5571644176136 229" stroke-miterlimit="10"/></g><g transform="translate(-166,10) scale(1,1)"><path fill="none" stroke="#000000" d="M 1203.32080078125 211.64 L 1216.0844371448864 229" stroke-miterlimit="10"/></g><g transform="translate(-166,10) scale(1,1)"><g><path fill="none" stroke="none"/><text fill="#000000" stroke="none" font-family="Arial" font-size="13px" font-style="normal" font-weight="bold" text-decoration="none" x="1137.20361328125" y="249.5">JavaUniversalBackend</text></g></g><g transform="translate(-166,10) scale(1,1)"><path fill="none" stroke="#000000" d="M 1127 213 L 1011 211" stroke-miterlimit="10"/></g><g transform="translate(-166,10) scale(1,1)"><path fill="none" stroke="#000000" d="M 1021.2337317970297 206.9663002706619 L 1011 211 L 1021.0885975824094 215.3840847186388" stroke-miterlimit="10"/></g></g></svg>