<svg version="1.1" xmlns="http://www.w3.org/2000/svg" xmlns:xlink="http://www.w3.org/1999/xlink" width="737.64599609375" height="352"><defs/><g><g transform="translate(-110,-173) scale(1,1)"><rect fill="#C0C0C0" stroke="none" x="275" y="190" width="292.9560546875" height="59" opacity="0.2"/></g><g transform="translate(-110,-173) scale(1,1)"><rect fill="#ffffff" stroke="none" x="268" y="183" width="292.9560546875" height="59"/></g><g transform="translate(-110,-173) scale(1,1)"><path fill="none" stroke="#000000" d="M 268 183 L 560.9560546875 183 L 560.9560546875 242 L 268 242 L 268 183 Z Z" stroke-miterlimit="10"/></g><g transform="translate(-110,-173) scale(1,1)"><path fill="none" stroke="#000000" d="M 268 223 L 560.9560546875 223" stroke-miterlimit="10"/></g><g transform="translate(-110,-173) scale(1,1)"><path fill="none" stroke="#000000" d="M 268 233 L 560.9560546875 233" stroke-miterlimit="10"/></g><g transform="translate(-110,-173) scale(1,1)"><g><path fill="none" stroke="none"/><text fill="#000000" stroke="none" font-family="Arial" font-size="13px" font-style="normal" font-weight="bold" text-decoration="none" x="365.826416015625" y="202.5">SecurityValidator</text></g></g><g transform="translate(-110,-173) scale(1,1)"><g><path fill="none" stroke="none"/><text fill="#000000" stroke="none" font-family="Arial" font-size="13px" font-style="normal" font-weight="normal" text-decoration="none" x="272.5" y="217.5">(from io.anindya.JavaUniversalBackend.Security)</text></g></g><g transform="translate(-110,-173) scale(1,1)"><rect fill="#C0C0C0" stroke="none" x="266" y="463" width="296.33935546875" height="59" opacity="0.2"/></g><g transform="translate(-110,-173) scale(1,1)"><rect fill="#ffffff" stroke="none" x="259" y="456" width="296.33935546875" height="59"/></g><g transform="translate(-110,-173) scale(1,1)"><path fill="none" stroke="#000000" d="M 259 456 L 555.33935546875 456 L 555.33935546875 515 L 259 515 L 259 456 Z Z" stroke-miterlimit="10"/></g><g transform="translate(-110,-173) scale(1,1)"><path fill="none" stroke="#000000" d="M 259 496 L 555.33935546875 496" stroke-miterlimit="10"/></g><g transform="translate(-110,-173) scale(1,1)"><path fill="none" stroke="#000000" d="M 259 506 L 555.33935546875 506" stroke-miterlimit="10"/></g><g transform="translate(-110,-173) scale(1,1)"><g><path fill="none" stroke="none"/><text fill="#000000" stroke="none" font-family="Arial" font-size="13px" font-style="normal" font-weight="bold" text-decoration="none" x="351.653076171875" y="475.5">ParameterValidator</text></g></g><g transform="translate(-110,-173) scale(1,1)"><g><path fill="none" stroke="none"/><text fill="#000000" stroke="none" font-family="Arial" font-size="13px" font-style="normal" font-weight="normal" text-decoration="none" x="263.5" y="490.5">(from io.anindya.JavaUniversalBackend.Validator)</text></g></g><g transform="translate(-110,-173) scale(1,1)"><rect fill="#C0C0C0" stroke="none" x="543" y="319" width="301.64599609375" height="59" opacity="0.2"/></g><g transform="translate(-110,-173) scale(1,1)"><rect fill="#ffffff" stroke="none" x="536" y="312" width="301.64599609375" height="59"/></g><g transform="translate(-110,-173) scale(1,1)"><path fill="none" stroke="#000000" d="M 536 312 L 837.64599609375 312 L 837.64599609375 371 L 536 371 L 536 312 Z Z" stroke-miterlimit="10"/></g><g transform="translate(-110,-173) scale(1,1)"><path fill="none" stroke="#000000" d="M 536 352 L 837.64599609375 352" stroke-miterlimit="10"/></g><g transform="translate(-110,-173) scale(1,1)"><path fill="none" stroke="#000000" d="M 536 362 L 837.64599609375 362" stroke-miterlimit="10"/></g><g transform="translate(-110,-173) scale(1,1)"><g><path fill="none" stroke="none"/><text fill="#000000" stroke="none" font-family="Arial" font-size="13px" font-style="normal" font-weight="bold" text-decoration="none" x="615.272216796875" y="331.5">DatabaseRequestQueue</text></g></g><g transform="translate(-110,-173) scale(1,1)"><g><path fill="none" stroke="none"/><text fill="#000000" stroke="none" font-family="Arial" font-size="13px" font-style="normal" font-weight="normal" text-decoration="none" x="540.5" y="346.5">(from io.anindya.JavaUniversalBackend.Database)</text></g></g><g transform="translate(-110,-173) scale(1,1)"><rect fill="#C0C0C0" stroke="none" x="127" y="279" width="188.17529296875" height="132" opacity="0.2"/></g><g transform="translate(-110,-173) scale(1,1)"><rect fill="#ffffff" stroke="none" x="120" y="272" width="188.17529296875" height="132"/></g><g transform="translate(-110,-173) scale(1,1)"><path fill="none" stroke="#000000" d="M 120 272 L 308.17529296875 272 L 308.17529296875 404 L 120 404 L 120 272 Z Z" stroke-miterlimit="10"/></g><g transform="translate(-110,-173) scale(1,1)"><path fill="none" stroke="#000000" d="M 120 297 L 308.17529296875 297" stroke-miterlimit="10"/></g><g transform="translate(-110,-173) scale(1,1)"><path fill="none" stroke="#000000" d="M 120 307 L 308.17529296875 307" stroke-miterlimit="10"/></g><g transform="translate(-110,-173) scale(1,1)"><g><path fill="none" stroke="none"/><text fill="#000000" stroke="none" font-family="Arial" font-size="13px" font-style="normal" font-weight="bold" text-decoration="none" x="131" y="291.5">JavaUniversalMainController</text></g></g><g transform="translate(-110,-173) scale(1,1)"><g><path fill="none" stroke="none"/><text fill="#000000" stroke="none" font-family="Arial" font-size="13px" font-style="normal" font-weight="normal" text-decoration="none" x="125" y="324.5">+authenticate()</text></g></g><g transform="translate(-110,-173) scale(1,1)"><g><path fill="none" stroke="none"/><text fill="#000000" stroke="none" font-family="Arial" font-size="13px" font-style="normal" font-weight="normal" text-decoration="none" x="125" y="339.5">+get()</text></g></g><g transform="translate(-110,-173) scale(1,1)"><g><path fill="none" stroke="none"/><text fill="#000000" stroke="none" font-family="Arial" font-size="13px" font-style="normal" font-weight="normal" text-decoration="none" x="125" y="354.5">+put()</text></g></g><g transform="translate(-110,-173) scale(1,1)"><g><path fill="none" stroke="none"/><text fill="#000000" stroke="none" font-family="Arial" font-size="13px" font-style="normal" font-weight="normal" text-decoration="none" x="125" y="369.5">+update()</text></g></g><g transform="translate(-110,-173) scale(1,1)"><g><path fill="none" stroke="none"/><text fill="#000000" stroke="none" font-family="Arial" font-size="13px" font-style="normal" font-weight="normal" text-decoration="none" x="125" y="384.5">+delete()</text></g></g><g transform="translate(-110,-173) scale(1,1)"><g><path fill="none" stroke="none"/><text fill="#000000" stroke="none" font-family="Arial" font-size="13px" font-style="normal" font-weight="normal" text-decoration="none" x="125" y="399.5">+registerUser()</text></g></g><g transform="translate(-110,-173) scale(1,1)"><path fill="none" stroke="#000000" d="M 365 243 L 309 278" stroke-miterlimit="10"/></g><g transform="translate(-110,-173) scale(1,1)"><g><path fill="none" stroke="none"/><text fill="#000000" stroke="none" font-family="Arial" font-size="13px" font-style="normal" font-weight="normal" text-decoration="none" x="300.114990234375" y="275.5">-securityValidator</text></g></g><g transform="translate(-110,-173) scale(1,1)"><g><path fill="none" stroke="none"/><text fill="#000000" stroke="none" font-family="Arial" font-size="13px" font-style="normal" font-weight="normal" text-decoration="none" x="336.5" y="249.5">1</text></g></g><g transform="translate(-110,-173) scale(1,1)"><path fill="none" stroke="#000000" d="M 368 455 L 302 405" stroke-miterlimit="10"/></g><g transform="translate(-110,-173) scale(1,1)"><g><path fill="none" stroke="none"/><text fill="#000000" stroke="none" font-family="Arial" font-size="13px" font-style="normal" font-weight="normal" text-decoration="none" x="281.13134765625" y="457.5">-parameterValidator</text></g></g><g transform="translate(-110,-173) scale(1,1)"><path fill="none" stroke="#000000" d="M 535 340 L 309 339" stroke-miterlimit="10"/></g><g transform="translate(-110,-173) scale(1,1)"><g><path fill="none" stroke="none"/><text fill="#000000" stroke="none" font-family="Arial" font-size="13px" font-style="normal" font-weight="normal" text-decoration="none" x="435.13134765625" y="360.5">-databaseRequestQueue</text></g></g></g></svg>