<svg version="1.1" xmlns="http://www.w3.org/2000/svg" xmlns:xlink="http://www.w3.org/1999/xlink" width="713.64599609375" height="352"><defs/><g><g transform="translate(-134,-173) scale(1,1)"><rect fill="#C0C0C0" stroke="none" x="275" y="190" width="292.9560546875" height="59" opacity="0.2"/></g><g transform="translate(-134,-173) scale(1,1)"><rect fill="#ffffff" stroke="none" x="268" y="183" width="292.9560546875" height="59"/></g><g transform="translate(-134,-173) scale(1,1)"><path fill="none" stroke="#000000" d="M 268 183 L 560.9560546875 183 L 560.9560546875 242 L 268 242 L 268 183 Z Z" stroke-miterlimit="10"/></g><g transform="translate(-134,-173) scale(1,1)"><path fill="none" stroke="#000000" d="M 268 223 L 560.9560546875 223" stroke-miterlimit="10"/></g><g transform="translate(-134,-173) scale(1,1)"><path fill="none" stroke="#000000" d="M 268 233 L 560.9560546875 233" stroke-miterlimit="10"/></g><g transform="translate(-134,-173) scale(1,1)"><g><path fill="none" stroke="none"/><text fill="#000000" stroke="none" font-family="Arial" font-size="13px" font-style="normal" font-weight="bold" text-decoration="none" x="365.826416015625" y="202.5">SecurityValidator</text></g></g><g transform="translate(-134,-173) scale(1,1)"><g><path fill="none" stroke="none"/><text fill="#000000" stroke="none" font-family="Arial" font-size="13px" font-style="normal" font-weight="normal" text-decoration="none" x="272.5" y="217.5">(from io.anindya.JavaUniversalBackend.Security)</text></g></g><g transform="translate(-134,-173) scale(1,1)"><rect fill="#C0C0C0" stroke="none" x="266" y="463" width="296.33935546875" height="59" opacity="0.2"/></g><g transform="translate(-134,-173) scale(1,1)"><rect fill="#ffffff" stroke="none" x="259" y="456" width="296.33935546875" height="59"/></g><g transform="translate(-134,-173) scale(1,1)"><path fill="none" stroke="#000000" d="M 259 456 L 555.33935546875 456 L 555.33935546875 515 L 259 515 L 259 456 Z Z" stroke-miterlimit="10"/></g><g transform="translate(-134,-173) scale(1,1)"><path fill="none" stroke="#000000" d="M 259 496 L 555.33935546875 496" stroke-miterlimit="10"/></g><g transform="translate(-134,-173) scale(1,1)"><path fill="none" stroke="#000000" d="M 259 506 L 555.33935546875 506" stroke-miterlimit="10"/></g><g transform="translate(-134,-173) scale(1,1)"><g><path fill="none" stroke="none"/><text fill="#000000" stroke="none" font-family="Arial" font-size="13px" font-style="normal" font-weight="bold" text-decoration="none" x="351.653076171875" y="475.5">ParameterValidator</text></g></g><g transform="translate(-134,-173) scale(1,1)"><g><path fill="none" stroke="none"/><text fill="#000000" stroke="none" font-family="Arial" font-size="13px" font-style="normal" font-weight="normal" text-decoration="none" x="263.5" y="490.5">(from io.anindya.JavaUniversalBackend.Validator)</text></g></g><g transform="translate(-134,-173) scale(1,1)"><rect fill="#C0C0C0" stroke="none" x="543" y="319" width="301.64599609375" height="59" opacity="0.2"/></g><g transform="translate(-134,-173) scale(1,1)"><rect fill="#ffffff" stroke="none" x="536" y="312" width="301.64599609375" height="59"/></g><g transform="translate(-134,-173) scale(1,1)"><path fill="none" stroke="#000000" d="M 536 312 L 837.64599609375 312 L 837.64599609375 371 L 536 371 L 536 312 Z Z" stroke-miterlimit="10"/></g><g transform="translate(-134,-173) scale(1,1)"><path fill="none" stroke="#000000" d="M 536 352 L 837.64599609375 352" stroke-miterlimit="10"/></g><g transform="translate(-134,-173) scale(1,1)"><path fill="none" stroke="#000000" d="M 536 362 L 837.64599609375 362" stroke-miterlimit="10"/></g><g transform="translate(-134,-173) scale(1,1)"><g><path fill="none" stroke="none"/><text fill="#000000" stroke="none" font-family="Arial" font-size="13px" font-style="normal" font-weight="bold" text-decoration="none" x="615.272216796875" y="331.5">DatabaseRequestQueue</text></g></g><g transform="translate(-134,-173) scale(1,1)"><g><path fill="none" stroke="none"/><text fill="#000000" stroke="none" font-family="Arial" font-size="13px" font-style="normal" font-weight="normal" text-decoration="none" x="540.5" y="346.5">(from io.anindya.JavaUniversalBackend.Database)</text></g></g><g transform="translate(-134,-173) scale(1,1)"><rect fill="#C0C0C0" stroke="none" x="151" y="327" width="188.17529296875" height="44" opacity="0.2"/></g><g transform="translate(-134,-173) scale(1,1)"><rect fill="#ffffff" stroke="none" x="144" y="320" width="188.17529296875" height="44"/></g><g transform="translate(-134,-173) scale(1,1)"><path fill="none" stroke="#000000" d="M 144 320 L 332.17529296875 320 L 332.17529296875 364 L 144 364 L 144 320 Z Z" stroke-miterlimit="10"/></g><g transform="translate(-134,-173) scale(1,1)"><path fill="none" stroke="#000000" d="M 144 345 L 332.17529296875 345" stroke-miterlimit="10"/></g><g transform="translate(-134,-173) scale(1,1)"><path fill="none" stroke="#000000" d="M 144 355 L 332.17529296875 355" stroke-miterlimit="10"/></g><g transform="translate(-134,-173) scale(1,1)"><g><path fill="none" stroke="none"/><text fill="#000000" stroke="none" font-family="Arial" font-size="13px" font-style="normal" font-weight="bold" text-decoration="none" x="155" y="339.5">JavaUniversalMainController</text></g></g><g transform="translate(-134,-173) scale(1,1)"><path fill="none" stroke="#000000" d="M 372 243 L 269 319" stroke-miterlimit="10"/></g><g transform="translate(-134,-173) scale(1,1)"><g><path fill="none" stroke="none"/><text fill="#000000" stroke="none" font-family="Arial" font-size="13px" font-style="normal" font-weight="normal" text-decoration="none" x="310.114990234375" y="276.5">-securityValidator</text></g></g><g transform="translate(-134,-173) scale(1,1)"><g><path fill="none" stroke="none"/><text fill="#000000" stroke="none" font-family="Arial" font-size="13px" font-style="normal" font-weight="normal" text-decoration="none" x="343.5" y="251.5">1</text></g></g><g transform="translate(-134,-173) scale(1,1)"><path fill="none" stroke="#000000" d="M 372 455 L 265 365" stroke-miterlimit="10"/></g><g transform="translate(-134,-173) scale(1,1)"><g><path fill="none" stroke="none"/><text fill="#000000" stroke="none" font-family="Arial" font-size="13px" font-style="normal" font-weight="normal" text-decoration="none" x="285.13134765625" y="455.5">-parameterValidator</text></g></g><g transform="translate(-134,-173) scale(1,1)"><path fill="none" stroke="#000000" d="M 535 341 L 333 342" stroke-miterlimit="10"/></g><g transform="translate(-134,-173) scale(1,1)"><g><path fill="none" stroke="none"/><text fill="#000000" stroke="none" font-family="Arial" font-size="13px" font-style="normal" font-weight="normal" text-decoration="none" x="436.13134765625" y="362.5">-databaseRequestQueue</text></g></g></g></svg>