<svg version="1.1" xmlns="http://www.w3.org/2000/svg" xmlns:xlink="http://www.w3.org/1999/xlink" width="1103.39453125" height="502"><defs/><g><g transform="translate(2,2) scale(1,1)"><path fill="#ffffff" stroke="none" d="M 91.25114719460227 273.68 C 91.25114719460227 268.886167936 95.13698951954773 265 99.930419921875 265 C 104.72385032420227 265 108.60969264914773 268.886167936 108.60969264914773 273.68 C 108.60969264914773 278.473832064 104.72385032420227 282.36 99.930419921875 282.36 C 95.13698951954773 282.36 91.25114719460227 278.473832064 91.25114719460227 273.68 Z"/></g><g transform="translate(2,2) scale(1,1)"><path fill="none" stroke="#000000" d="M 91.25114719460227 273.68 C 91.25114719460227 268.886167936 95.13698951954773 265 99.930419921875 265 C 104.72385032420227 265 108.60969264914773 268.886167936 108.60969264914773 273.68 C 108.60969264914773 278.473832064 104.72385032420227 282.36 99.930419921875 282.36 C 95.13698951954773 282.36 91.25114719460227 278.473832064 91.25114719460227 273.68 Z" stroke-miterlimit="10"/></g><g transform="translate(2,2) scale(1,1)"><path fill="none" stroke="#000000" d="M 99.930419921875 282.36 L 99.930419921875 299.64" stroke-miterlimit="10"/></g><g transform="translate(2,2) scale(1,1)"><path fill="none" stroke="#000000" d="M 90.74060174005682 288.84 L 109.12023810369318 288.84" stroke-miterlimit="10"/></g><g transform="translate(2,2) scale(1,1)"><path fill="none" stroke="#000000" d="M 99.930419921875 299.64 L 87.16678355823863 317" stroke-miterlimit="10"/></g><g transform="translate(2,2) scale(1,1)"><path fill="none" stroke="#000000" d="M 99.930419921875 299.64 L 112.69405628551137 317" stroke-miterlimit="10"/></g><g transform="translate(2,2) scale(1,1)"><g><path fill="none" stroke="none"/><text fill="#000000" stroke="none" font-family="Arial" font-size="13px" font-style="normal" font-weight="bold" text-decoration="none" x="70.302734375" y="337.5">Developer</text></g></g><g transform="translate(2,2) scale(1,1)"><path fill="#ffffff" stroke="none" d="M 1041.0179928977273 153.68 C 1041.0179928977273 148.886167936 1044.9038352226728 145 1049.697265625 145 C 1054.4906960273272 145 1058.3765383522727 148.886167936 1058.3765383522727 153.68 C 1058.3765383522727 158.47383206400002 1054.4906960273272 162.36 1049.697265625 162.36 C 1044.9038352226728 162.36 1041.0179928977273 158.47383206400002 1041.0179928977273 153.68 Z"/></g><g transform="translate(2,2) scale(1,1)"><path fill="none" stroke="#000000" d="M 1041.0179928977273 153.68 C 1041.0179928977273 148.886167936 1044.9038352226728 145 1049.697265625 145 C 1054.4906960273272 145 1058.3765383522727 148.886167936 1058.3765383522727 153.68 C 1058.3765383522727 158.47383206400002 1054.4906960273272 162.36 1049.697265625 162.36 C 1044.9038352226728 162.36 1041.0179928977273 158.47383206400002 1041.0179928977273 153.68 Z" stroke-miterlimit="10"/></g><g transform="translate(2,2) scale(1,1)"><path fill="none" stroke="#000000" d="M 1049.697265625 162.36 L 1049.697265625 179.64" stroke-miterlimit="10"/></g><g transform="translate(2,2) scale(1,1)"><path fill="none" stroke="#000000" d="M 1040.5074474431817 168.84 L 1058.8870838068183 168.84" stroke-miterlimit="10"/></g><g transform="translate(2,2) scale(1,1)"><path fill="none" stroke="#000000" d="M 1049.697265625 179.64 L 1036.9336292613636 197" stroke-miterlimit="10"/></g><g transform="translate(2,2) scale(1,1)"><path fill="none" stroke="#000000" d="M 1049.697265625 179.64 L 1062.4609019886364 197" stroke-miterlimit="10"/></g><g transform="translate(2,2) scale(1,1)"><g><path fill="none" stroke="none"/><text fill="#000000" stroke="none" font-family="Arial" font-size="13px" font-style="normal" font-weight="bold" text-decoration="none" x="1013.937744140625" y="217.5">REST Client</text></g></g><g transform="translate(2,2) scale(1,1)"><path fill="#C0C0C0" stroke="none" d="M 167 288 C 167 278.6111584 225.20297599999998 271 297 271 C 368.797024 271 427 278.6111584 427 288 C 427 297.3888416 368.797024 305 297 305 C 225.20297599999998 305 167 297.3888416 167 288 Z" opacity="0.2"/></g><g transform="translate(2,2) scale(1,1)"><path fill="#ffffff" stroke="none" d="M 160 281 C 160 271.6111584 218.20297599999998 264 290 264 C 361.797024 264 420 271.6111584 420 281 C 420 290.3888416 361.797024 298 290 298 C 218.20297599999998 298 160 290.3888416 160 281 Z"/></g><g transform="translate(2,2) scale(1,1)"><path fill="none" stroke="#000000" d="M 160 281 C 160 271.6111584 218.20297599999998 264 290 264 C 361.797024 264 420 271.6111584 420 281 C 420 290.3888416 361.797024 298 290 298 C 218.20297599999998 298 160 290.3888416 160 281 Z" stroke-miterlimit="10"/></g><g transform="translate(2,2) scale(1,1)"><g><path fill="none" stroke="none"/><text fill="#000000" stroke="none" font-family="Arial" font-size="13px" font-style="normal" font-weight="bold" text-decoration="none" x="207.629638671875" y="288">Create Documents Template</text></g></g><g transform="translate(2,2) scale(1,1)"><path fill="none" stroke="#000000" d="M 137 299 L 159 296" stroke-miterlimit="10"/></g><g transform="translate(2,2) scale(1,1)"><path fill="#C0C0C0" stroke="none" d="M 31 160 C 31 150.6111584 63.9070672 143 104.5 143 C 145.0929328 143 178 150.6111584 178 160 C 178 169.3888416 145.0929328 177 104.5 177 C 63.9070672 177 31 169.3888416 31 160 Z" opacity="0.2"/></g><g transform="translate(2,2) scale(1,1)"><path fill="#ffffff" stroke="none" d="M 24 153 C 24 143.6111584 56.9070672 136 97.5 136 C 138.0929328 136 171 143.6111584 171 153 C 171 162.3888416 138.0929328 170 97.5 170 C 56.9070672 170 24 162.3888416 24 153 Z"/></g><g transform="translate(2,2) scale(1,1)"><path fill="none" stroke="#000000" d="M 24 153 C 24 143.6111584 56.9070672 136 97.5 136 C 138.0929328 136 171 143.6111584 171 153 C 171 162.3888416 138.0929328 170 97.5 170 C 56.9070672 170 24 162.3888416 24 153 Z" stroke-miterlimit="10"/></g><g transform="translate(2,2) scale(1,1)"><g><path fill="none" stroke="none"/><text fill="#000000" stroke="none" font-family="Arial" font-size="13px" font-style="normal" font-weight="bold" text-decoration="none" x="54.13916015625" y="160">Login to Admin</text></g></g><g transform="translate(2,2) scale(1,1)"><path fill="none" stroke="#000000" d="M 98 263 L 97 171" stroke-miterlimit="10"/></g><g transform="translate(2,2) scale(1,1)"><path fill="#C0C0C0" stroke="none" d="M 199 192 C 199 182.6111584 246.010096 175 304 175 C 361.989904 175 409 182.6111584 409 192 C 409 201.3888416 361.989904 209 304 209 C 246.010096 209 199 201.3888416 199 192 Z" opacity="0.2"/></g><g transform="translate(2,2) scale(1,1)"><path fill="#ffffff" stroke="none" d="M 192 185 C 192 175.6111584 239.010096 168 297 168 C 354.989904 168 402 175.6111584 402 185 C 402 194.3888416 354.989904 202 297 202 C 239.010096 202 192 194.3888416 192 185 Z"/></g><g transform="translate(2,2) scale(1,1)"><path fill="none" stroke="#000000" d="M 192 185 C 192 175.6111584 239.010096 168 297 168 C 354.989904 168 402 175.6111584 402 185 C 402 194.3888416 354.989904 202 297 202 C 239.010096 202 192 194.3888416 192 185 Z" stroke-miterlimit="10"/></g><g transform="translate(2,2) scale(1,1)"><g><path fill="none" stroke="none"/><text fill="#000000" stroke="none" font-family="Arial" font-size="13px" font-style="normal" font-weight="bold" text-decoration="none" x="232.695068359375" y="192">Document Constraints</text></g></g><g transform="translate(2,2) scale(1,1)"><path fill="none" stroke="#000000" d="M 137 280 L 267 203" stroke-miterlimit="10"/></g><g transform="translate(2,2) scale(1,1)"><path fill="#C0C0C0" stroke="none" d="M 15 408 C 15 398.6111584 54.8466528 391 104 391 C 153.15334719999998 391 193 398.6111584 193 408 C 193 417.3888416 153.15334719999998 425 104 425 C 54.8466528 425 15 417.3888416 15 408 Z" opacity="0.2"/></g><g transform="translate(2,2) scale(1,1)"><path fill="#ffffff" stroke="none" d="M 8 401 C 8 391.6111584 47.8466528 384 97 384 C 146.15334719999998 384 186 391.6111584 186 401 C 186 410.3888416 146.15334719999998 418 97 418 C 47.8466528 418 8 410.3888416 8 401 Z"/></g><g transform="translate(2,2) scale(1,1)"><path fill="none" stroke="#000000" d="M 8 401 C 8 391.6111584 47.8466528 384 97 384 C 146.15334719999998 384 186 391.6111584 186 401 C 186 410.3888416 146.15334719999998 418 97 418 C 47.8466528 418 8 410.3888416 8 401 Z" stroke-miterlimit="10"/></g><g transform="translate(2,2) scale(1,1)"><g><path fill="none" stroke="none"/><text fill="#000000" stroke="none" font-family="Arial" font-size="13px" font-style="normal" font-weight="bold" text-decoration="none" x="41.0009765625" y="408">Generate API Docs</text></g></g><g transform="translate(2,2) scale(1,1)"><path fill="none" stroke="#000000" d="M 98 344 L 97 383" stroke-miterlimit="10"/></g><g transform="translate(2,2) scale(1,1)"><path fill="#C0C0C0" stroke="none" d="M 183 368 C 183 358.6111584 238.74054239999998 351 307.5 351 C 376.2594576 351 432 358.6111584 432 368 C 432 377.3888416 376.2594576 385 307.5 385 C 238.74054239999998 385 183 377.3888416 183 368 Z" opacity="0.2"/></g><g transform="translate(2,2) scale(1,1)"><path fill="#ffffff" stroke="none" d="M 176 361 C 176 351.6111584 231.74054239999998 344 300.5 344 C 369.2594576 344 425 351.6111584 425 361 C 425 370.3888416 369.2594576 378 300.5 378 C 231.74054239999998 378 176 370.3888416 176 361 Z"/></g><g transform="translate(2,2) scale(1,1)"><path fill="none" stroke="#000000" d="M 176 361 C 176 351.6111584 231.74054239999998 344 300.5 344 C 369.2594576 344 425 351.6111584 425 361 C 425 370.3888416 369.2594576 378 300.5 378 C 231.74054239999998 378 176 370.3888416 176 361 Z" stroke-miterlimit="10"/></g><g transform="translate(2,2) scale(1,1)"><g><path fill="none" stroke="none"/><text fill="#000000" stroke="none" font-family="Arial" font-size="13px" font-style="normal" font-weight="bold" text-decoration="none" x="223.54736328125" y="368">Setup Security Constraints</text></g></g><g transform="translate(2,2) scale(1,1)"><path fill="none" stroke="#000000" d="M 137 314 L 238 343" stroke-miterlimit="10"/></g><g transform="translate(2,2) scale(1,1)"><path fill="#C0C0C0" stroke="none" d="M 447 288 C 447 278.6111584 495.8009568 271 556 271 C 616.1990432 271 665 278.6111584 665 288 C 665 297.3888416 616.1990432 305 556 305 C 495.8009568 305 447 297.3888416 447 288 Z" opacity="0.2"/></g><g transform="translate(2,2) scale(1,1)"><path fill="#ffffff" stroke="none" d="M 440 281 C 440 271.6111584 488.8009568 264 549 264 C 609.1990432 264 658 271.6111584 658 281 C 658 290.3888416 609.1990432 298 549 298 C 488.8009568 298 440 290.3888416 440 281 Z"/></g><g transform="translate(2,2) scale(1,1)"><path fill="none" stroke="#000000" d="M 440 281 C 440 271.6111584 488.8009568 264 549 264 C 609.1990432 264 658 271.6111584 658 281 C 658 290.3888416 609.1990432 298 549 298 C 488.8009568 298 440 290.3888416 440 281 Z" stroke-miterlimit="10"/></g><g transform="translate(2,2) scale(1,1)"><g><path fill="none" stroke="none"/><text fill="#000000" stroke="none" font-family="Arial" font-size="13px" font-style="normal" font-weight="bold" text-decoration="none" x="481.42919921875" y="288">Generate Configuration</text></g></g><g transform="translate(2,2) scale(1,1)"><path fill="none" stroke="#000000" d="M 421 281 L 439 281" stroke-miterlimit="10"/></g><g transform="translate(2,2) scale(1,1)"><path fill="none" stroke="#000000" d="M 344 203 L 502 263" stroke-miterlimit="10"/></g><g transform="translate(2,2) scale(1,1)"><path fill="none" stroke="#000000" d="M 356 343 L 493 299" stroke-miterlimit="10"/></g><g transform="translate(2,2) scale(1,1)"><path fill="#C0C0C0" stroke="none" d="M 31 480 C 31 470.6111584 62.787779199999996 463 102 463 C 141.2122208 463 173 470.6111584 173 480 C 173 489.3888416 141.2122208 497 102 497 C 62.787779199999996 497 31 489.3888416 31 480 Z" opacity="0.2"/></g><g transform="translate(2,2) scale(1,1)"><path fill="#ffffff" stroke="none" d="M 24 473 C 24 463.6111584 55.787779199999996 456 95 456 C 134.2122208 456 166 463.6111584 166 473 C 166 482.3888416 134.2122208 490 95 490 C 55.787779199999996 490 24 482.3888416 24 473 Z"/></g><g transform="translate(2,2) scale(1,1)"><path fill="none" stroke="#000000" d="M 24 473 C 24 463.6111584 55.787779199999996 456 95 456 C 134.2122208 456 166 463.6111584 166 473 C 166 482.3888416 134.2122208 490 95 490 C 55.787779199999996 490 24 482.3888416 24 473 Z" stroke-miterlimit="10"/></g><g transform="translate(2,2) scale(1,1)"><g><path fill="none" stroke="none"/><text fill="#000000" stroke="none" font-family="Arial" font-size="13px" font-style="normal" font-weight="bold" text-decoration="none" x="51.28369140625" y="480">Generate Docs</text></g></g><g transform="translate(2,2) scale(1,1)"><path fill="none" stroke="#000000" d="M 97 419 L 96 455" stroke-miterlimit="10"/></g><g transform="translate(2,2) scale(1,1)"><path fill="#C0C0C0" stroke="none" d="M 751 32 C 751 22.6111584 778.7583424 15 813 15 C 847.2416576 15 875 22.6111584 875 32 C 875 41.3888416 847.2416576 49 813 49 C 778.7583424 49 751 41.3888416 751 32 Z" opacity="0.2"/></g><g transform="translate(2,2) scale(1,1)"><path fill="#ffffff" stroke="none" d="M 744 25 C 744 15.611158399999999 771.7583424 8 806 8 C 840.2416576 8 868 15.611158399999999 868 25 C 868 34.3888416 840.2416576 42 806 42 C 771.7583424 42 744 34.3888416 744 25 Z"/></g><g transform="translate(2,2) scale(1,1)"><path fill="none" stroke="#000000" d="M 744 25 C 744 15.611158399999999 771.7583424 8 806 8 C 840.2416576 8 868 15.611158399999999 868 25 C 868 34.3888416 840.2416576 42 806 42 C 771.7583424 42 744 34.3888416 744 25 Z" stroke-miterlimit="10"/></g><g transform="translate(2,2) scale(1,1)"><g><path fill="none" stroke="none"/><text fill="#000000" stroke="none" font-family="Arial" font-size="13px" font-style="normal" font-weight="bold" text-decoration="none" x="769.86279296875" y="32">Authenticate</text></g></g><g transform="translate(2,2) scale(1,1)"><path fill="none" stroke="#000000" d="M 1007 156 L 834 43" stroke-miterlimit="10"/></g><g transform="translate(2,2) scale(1,1)"><path fill="#C0C0C0" stroke="none" d="M 807 264 C 807 254.6111584 822.4461744 247 841.5 247 C 860.5538256 247 876 254.6111584 876 264 C 876 273.3888416 860.5538256 281 841.5 281 C 822.4461744 281 807 273.3888416 807 264 Z" opacity="0.2"/></g><g transform="translate(2,2) scale(1,1)"><path fill="#ffffff" stroke="none" d="M 800 257 C 800 247.6111584 815.4461744 240 834.5 240 C 853.5538256 240 869 247.6111584 869 257 C 869 266.3888416 853.5538256 274 834.5 274 C 815.4461744 274 800 266.3888416 800 257 Z"/></g><g transform="translate(2,2) scale(1,1)"><path fill="none" stroke="#000000" d="M 800 257 C 800 247.6111584 815.4461744 240 834.5 240 C 853.5538256 240 869 247.6111584 869 257 C 869 266.3888416 853.5538256 274 834.5 274 C 815.4461744 274 800 266.3888416 800 257 Z" stroke-miterlimit="10"/></g><g transform="translate(2,2) scale(1,1)"><g><path fill="none" stroke="none"/><text fill="#000000" stroke="none" font-family="Arial" font-size="13px" font-style="normal" font-weight="bold" text-decoration="none" x="821.13818359375" y="264">GET</text></g></g><g transform="translate(2,2) scale(1,1)"><path fill="none" stroke="#000000" d="M 1007 197 L 870 245" stroke-miterlimit="10"/></g><g transform="translate(2,2) scale(1,1)"><path fill="#C0C0C0" stroke="none" d="M 807 328 C 807 318.6111584 822.4461744 311 841.5 311 C 860.5538256 311 876 318.6111584 876 328 C 876 337.3888416 860.5538256 345 841.5 345 C 822.4461744 345 807 337.3888416 807 328 Z" opacity="0.2"/></g><g transform="translate(2,2) scale(1,1)"><path fill="#ffffff" stroke="none" d="M 800 321 C 800 311.6111584 815.4461744 304 834.5 304 C 853.5538256 304 869 311.6111584 869 321 C 869 330.3888416 853.5538256 338 834.5 338 C 815.4461744 338 800 330.3888416 800 321 Z"/></g><g transform="translate(2,2) scale(1,1)"><path fill="none" stroke="#000000" d="M 800 321 C 800 311.6111584 815.4461744 304 834.5 304 C 853.5538256 304 869 311.6111584 869 321 C 869 330.3888416 853.5538256 338 834.5 338 C 815.4461744 338 800 330.3888416 800 321 Z" stroke-miterlimit="10"/></g><g transform="translate(2,2) scale(1,1)"><g><path fill="none" stroke="none"/><text fill="#000000" stroke="none" font-family="Arial" font-size="13px" font-style="normal" font-weight="bold" text-decoration="none" x="821.5" y="328">PUT</text></g></g><g transform="translate(2,2) scale(1,1)"><path fill="none" stroke="#000000" d="M 1007 210 L 862 303" stroke-miterlimit="10"/></g><g transform="translate(2,2) scale(1,1)"><path fill="#C0C0C0" stroke="none" d="M 799 208 C 799 198.6111584 818.4756112 191 842.5 191 C 866.5243888 191 886 198.6111584 886 208 C 886 217.3888416 866.5243888 225 842.5 225 C 818.4756112 225 799 217.3888416 799 208 Z" opacity="0.2"/></g><g transform="translate(2,2) scale(1,1)"><path fill="#ffffff" stroke="none" d="M 792 201 C 792 191.6111584 811.4756112 184 835.5 184 C 859.5243888 184 879 191.6111584 879 201 C 879 210.3888416 859.5243888 218 835.5 218 C 811.4756112 218 792 210.3888416 792 201 Z"/></g><g transform="translate(2,2) scale(1,1)"><path fill="none" stroke="#000000" d="M 792 201 C 792 191.6111584 811.4756112 184 835.5 184 C 859.5243888 184 879 191.6111584 879 201 C 879 210.3888416 859.5243888 218 835.5 218 C 811.4756112 218 792 210.3888416 792 201 Z" stroke-miterlimit="10"/></g><g transform="translate(2,2) scale(1,1)"><g><path fill="none" stroke="none"/><text fill="#000000" stroke="none" font-family="Arial" font-size="13px" font-style="normal" font-weight="bold" text-decoration="none" x="809.617431640625" y="208">UPDATE</text></g></g><g transform="translate(2,2) scale(1,1)"><path fill="none" stroke="#000000" d="M 1007 187 L 880 197" stroke-miterlimit="10"/></g><g transform="translate(2,2) scale(1,1)"><path fill="#C0C0C0" stroke="none" d="M 783 152 C 783 142.6111584 802.9233264 135 827.5 135 C 852.0766736 135 872 142.6111584 872 152 C 872 161.3888416 852.0766736 169 827.5 169 C 802.9233264 169 783 161.3888416 783 152 Z" opacity="0.2"/></g><g transform="translate(2,2) scale(1,1)"><path fill="#ffffff" stroke="none" d="M 776 145 C 776 135.6111584 795.9233264 128 820.5 128 C 845.0766736 128 865 135.6111584 865 145 C 865 154.3888416 845.0766736 162 820.5 162 C 795.9233264 162 776 154.3888416 776 145 Z"/></g><g transform="translate(2,2) scale(1,1)"><path fill="none" stroke="#000000" d="M 776 145 C 776 135.6111584 795.9233264 128 820.5 128 C 845.0766736 128 865 135.6111584 865 145 C 865 154.3888416 845.0766736 162 820.5 162 C 795.9233264 162 776 154.3888416 776 145 Z" stroke-miterlimit="10"/></g><g transform="translate(2,2) scale(1,1)"><g><path fill="none" stroke="none"/><text fill="#000000" stroke="none" font-family="Arial" font-size="13px" font-style="normal" font-weight="bold" text-decoration="none" x="795.214111328125" y="152">DELETE</text></g></g><g transform="translate(2,2) scale(1,1)"><path fill="none" stroke="#000000" d="M 1007 176 L 866 153" stroke-miterlimit="10"/></g><g transform="translate(2,2) scale(1,1)"><path fill="#C0C0C0" stroke="none" d="M 751 96 C 751 86.6111584 780.5492032 79 817 79 C 853.4507968 79 883 86.6111584 883 96 C 883 105.3888416 853.4507968 113 817 113 C 780.5492032 113 751 105.3888416 751 96 Z" opacity="0.2"/></g><g transform="translate(2,2) scale(1,1)"><path fill="#ffffff" stroke="none" d="M 744 89 C 744 79.6111584 773.5492032 72 810 72 C 846.4507968 72 876 79.6111584 876 89 C 876 98.3888416 846.4507968 106 810 106 C 773.5492032 106 744 98.3888416 744 89 Z"/></g><g transform="translate(2,2) scale(1,1)"><path fill="none" stroke="#000000" d="M 744 89 C 744 79.6111584 773.5492032 72 810 72 C 846.4507968 72 876 79.6111584 876 89 C 876 98.3888416 846.4507968 106 810 106 C 773.5492032 106 744 98.3888416 744 89 Z" stroke-miterlimit="10"/></g><g transform="translate(2,2) scale(1,1)"><g><path fill="none" stroke="none"/><text fill="#000000" stroke="none" font-family="Arial" font-size="13px" font-style="normal" font-weight="bold" text-decoration="none" x="770.266845703125" y="96">Register User</text></g></g><g transform="translate(2,2) scale(1,1)"><path fill="none" stroke="#000000" d="M 1007 166 L 856 107" stroke-miterlimit="10"/></g><g transform="translate(2,2) scale(1,1)"><path fill="#ffffff" stroke="none" d="M 602.6415280539773 145.68 C 602.6415280539773 140.886167936 606.5273703789227 137 611.32080078125 137 C 616.1142311835773 137 620.0000735085227 140.886167936 620.0000735085227 145.68 C 620.0000735085227 150.47383206400002 616.1142311835773 154.36 611.32080078125 154.36 C 606.5273703789227 154.36 602.6415280539773 150.47383206400002 602.6415280539773 145.68 Z"/></g><g transform="translate(2,2) scale(1,1)"><path fill="none" stroke="#000000" d="M 602.6415280539773 145.68 C 602.6415280539773 140.886167936 606.5273703789227 137 611.32080078125 137 C 616.1142311835773 137 620.0000735085227 140.886167936 620.0000735085227 145.68 C 620.0000735085227 150.47383206400002 616.1142311835773 154.36 611.32080078125 154.36 C 606.5273703789227 154.36 602.6415280539773 150.47383206400002 602.6415280539773 145.68 Z" stroke-miterlimit="10"/></g><g transform="translate(2,2) scale(1,1)"><path fill="none" stroke="#000000" d="M 611.32080078125 154.36 L 611.32080078125 171.64" stroke-miterlimit="10"/></g><g transform="translate(2,2) scale(1,1)"><path fill="none" stroke="#000000" d="M 602.1309825994318 160.84 L 620.5106189630682 160.84" stroke-miterlimit="10"/></g><g transform="translate(2,2) scale(1,1)"><path fill="none" stroke="#000000" d="M 611.32080078125 171.64 L 598.5571644176136 189" stroke-miterlimit="10"/></g><g transform="translate(2,2) scale(1,1)"><path fill="none" stroke="#000000" d="M 611.32080078125 171.64 L 624.0844371448864 189" stroke-miterlimit="10"/></g><g transform="translate(2,2) scale(1,1)"><g><path fill="none" stroke="none"/><text fill="#000000" stroke="none" font-family="Arial" font-size="13px" font-style="normal" font-weight="bold" text-decoration="none" x="545.20361328125" y="209.5">JavaUniversalBackend</text></g></g><g transform="translate(2,2) scale(1,1)"><path fill="none" stroke="#000000" d="M 587 216 L 560 263" stroke-miterlimit="10"/></g><g transform="translate(2,2) scale(1,1)"><path fill="none" stroke="#000000" d="M 561.4121807540146 252.09102454315757 L 560 263 L 568.7123731087557 256.284752066094" stroke-miterlimit="10"/></g><g transform="translate(2,2) scale(1,1)"><path fill="none" stroke="#000000" d="M 663 135 L 783 43" stroke-miterlimit="10"/></g><g transform="translate(2,2) scale(1,1)"><path fill="none" stroke="#000000" d="M 777.496039971593 52.52399202045538 L 783 43 L 772.3736331989031 45.84259188216427" stroke-miterlimit="10"/></g><g transform="translate(2,2) scale(1,1)"><path fill="none" stroke="#000000" d="M 688 203 L 799 244" stroke-miterlimit="10"/></g><g transform="translate(2,2) scale(1,1)"><path fill="none" stroke="#000000" d="M 788.0083104736517 244.42750597231463 L 799 244 L 790.9254094272005 236.52999417124337" stroke-miterlimit="10"/></g><g transform="translate(2,2) scale(1,1)"><path fill="none" stroke="#000000" d="M 674 216 L 807 303" stroke-miterlimit="10"/></g><g transform="translate(2,2) scale(1,1)"><path fill="none" stroke="#000000" d="M 796.1909071165521 300.95953166233903 L 807 303 L 800.7996461219954 293.91398812528223" stroke-miterlimit="10"/></g><g transform="translate(2,2) scale(1,1)"><path fill="none" stroke="#000000" d="M 688 184 L 791 196" stroke-miterlimit="10"/></g><g transform="translate(2,2) scale(1,1)"><path fill="none" stroke="#000000" d="M 780.4184674279569 199.00519024801926 L 791 196 L 781.3927361598319 190.64271696609205" stroke-miterlimit="10"/></g><g transform="translate(2,2) scale(1,1)"><path fill="none" stroke="#000000" d="M 688 164 L 775 151" stroke-miterlimit="10"/></g><g transform="translate(2,2) scale(1,1)"><path fill="none" stroke="#000000" d="M 765.5710171969581 156.66518166521965 L 775 151 L 764.3268139481472 148.33859069240827" stroke-miterlimit="10"/></g><g transform="translate(2,2) scale(1,1)"><path fill="none" stroke="#000000" d="M 688 142 L 768 107" stroke-miterlimit="10"/></g><g transform="translate(2,2) scale(1,1)"><path fill="none" stroke="#000000" d="M 760.3766448857132 114.92997205552936 L 768 107 L 757.00213688821 107.21681091837927" stroke-miterlimit="10"/></g></g></svg>