<svg version="1.1" xmlns="http://www.w3.org/2000/svg" xmlns:xlink="http://www.w3.org/1999/xlink" width="754.6416015625" height="427"><defs/><g><g transform="translate(-174,-38) scale(1,1)"><path fill="none" stroke="#000000" d="M 352 48 L 675.94970703125 48 L 675.94970703125 455 L 352 455 L 352 48" stroke-miterlimit="10"/></g><g transform="translate(-174,-38) scale(1,1)"><path fill="#ffffff" stroke="none" d="M 352 48 L 352 70 L 658.44970703125 70 L 669.44970703125 59 L 669.44970703125 48 L 352 48"/></g><g transform="translate(-174,-38) scale(1,1)"><path fill="none" stroke="#000000" d="M 352 48 L 352 70 L 658.44970703125 70 L 669.44970703125 59 L 669.44970703125 48 L 352 48 L 352 48" stroke-miterlimit="10"/></g><g transform="translate(-174,-38) scale(1,1)"><g><path fill="none" stroke="none"/><text fill="#000000" stroke="none" font-family="Arial" font-size="13px" font-style="normal" font-weight="normal" text-decoration="none" x="415.03173828125" y="65.5">UseCaseDiagramRESTClientPerspective</text></g></g><g transform="translate(-174,-38) scale(1,1)"><g><path fill="none" stroke="none"/><text fill="#000000" stroke="none" font-family="Arial" font-size="13px" font-style="normal" font-weight="bold" text-decoration="none" x="357" y="65.5">use case</text></g></g><g transform="translate(-174,-38) scale(1,1)"><path fill="#ffffff" stroke="none" d="M 217.01799289772728 249.68 C 217.01799289772728 244.886167936 220.90383522267274 241 225.697265625 241 C 230.49069602732726 241 234.37653835227272 244.886167936 234.37653835227272 249.68 C 234.37653835227272 254.47383206400002 230.49069602732726 258.36 225.697265625 258.36 C 220.90383522267274 258.36 217.01799289772728 254.47383206400002 217.01799289772728 249.68 Z"/></g><g transform="translate(-174,-38) scale(1,1)"><path fill="none" stroke="#000000" d="M 217.01799289772728 249.68 C 217.01799289772728 244.886167936 220.90383522267274 241 225.697265625 241 C 230.49069602732726 241 234.37653835227272 244.886167936 234.37653835227272 249.68 C 234.37653835227272 254.47383206400002 230.49069602732726 258.36 225.697265625 258.36 C 220.90383522267274 258.36 217.01799289772728 254.47383206400002 217.01799289772728 249.68 Z" stroke-miterlimit="10"/></g><g transform="translate(-174,-38) scale(1,1)"><path fill="none" stroke="#000000" d="M 225.697265625 258.36 L 225.697265625 275.64" stroke-miterlimit="10"/></g><g transform="translate(-174,-38) scale(1,1)"><path fill="none" stroke="#000000" d="M 216.50744744318183 264.84 L 234.88708380681817 264.84" stroke-miterlimit="10"/></g><g transform="translate(-174,-38) scale(1,1)"><path fill="none" stroke="#000000" d="M 225.697265625 275.64 L 212.93362926136365 293" stroke-miterlimit="10"/></g><g transform="translate(-174,-38) scale(1,1)"><path fill="none" stroke="#000000" d="M 225.697265625 275.64 L 238.46090198863635 293" stroke-miterlimit="10"/></g><g transform="translate(-174,-38) scale(1,1)"><g><path fill="none" stroke="none"/><text fill="#000000" stroke="none" font-family="Arial" font-size="13px" font-style="normal" font-weight="bold" text-decoration="none" x="189.937744140625" y="313.5">REST Client</text></g></g><g transform="translate(-174,-38) scale(1,1)"><path fill="#C0C0C0" stroke="none" d="M 447 128 C 447 118.6111584 474.7583424 111 509 111 C 543.2416576 111 571 118.6111584 571 128 C 571 137.3888416 543.2416576 145 509 145 C 474.7583424 145 447 137.3888416 447 128 Z" opacity="0.2"/></g><g transform="translate(-174,-38) scale(1,1)"><path fill="#ffffff" stroke="none" d="M 440 121 C 440 111.6111584 467.7583424 104 502 104 C 536.2416576 104 564 111.6111584 564 121 C 564 130.3888416 536.2416576 138 502 138 C 467.7583424 138 440 130.3888416 440 121 Z"/></g><g transform="translate(-174,-38) scale(1,1)"><path fill="none" stroke="#000000" d="M 440 121 C 440 111.6111584 467.7583424 104 502 104 C 536.2416576 104 564 111.6111584 564 121 C 564 130.3888416 536.2416576 138 502 138 C 467.7583424 138 440 130.3888416 440 121 Z" stroke-miterlimit="10"/></g><g transform="translate(-174,-38) scale(1,1)"><g><path fill="none" stroke="none"/><text fill="#000000" stroke="none" font-family="Arial" font-size="13px" font-style="normal" font-weight="bold" text-decoration="none" x="465.86279296875" y="128">Authenticate</text></g></g><g transform="translate(-174,-38) scale(1,1)"><path fill="#C0C0C0" stroke="none" d="M 463 192 C 463 182.6111584 485.6096176 175 513.5 175 C 541.3903824 175 564 182.6111584 564 192 C 564 201.3888416 541.3903824 209 513.5 209 C 485.6096176 209 463 201.3888416 463 192 Z" opacity="0.2"/></g><g transform="translate(-174,-38) scale(1,1)"><path fill="#ffffff" stroke="none" d="M 456 185 C 456 175.6111584 478.6096176 168 506.5 168 C 534.3903824 168 557 175.6111584 557 185 C 557 194.3888416 534.3903824 202 506.5 202 C 478.6096176 202 456 194.3888416 456 185 Z"/></g><g transform="translate(-174,-38) scale(1,1)"><path fill="none" stroke="#000000" d="M 456 185 C 456 175.6111584 478.6096176 168 506.5 168 C 534.3903824 168 557 175.6111584 557 185 C 557 194.3888416 534.3903824 202 506.5 202 C 478.6096176 202 456 194.3888416 456 185 Z" stroke-miterlimit="10"/></g><g transform="translate(-174,-38) scale(1,1)"><g><path fill="none" stroke="none"/><text fill="#000000" stroke="none" font-family="Arial" font-size="13px" font-style="normal" font-weight="bold" text-decoration="none" x="493.13818359375" y="192">GET</text></g></g><g transform="translate(-174,-38) scale(1,1)"><path fill="#C0C0C0" stroke="none" d="M 463 248 C 463 238.6111584 485.6096176 231 513.5 231 C 541.3903824 231 564 238.6111584 564 248 C 564 257.3888416 541.3903824 265 513.5 265 C 485.6096176 265 463 257.3888416 463 248 Z" opacity="0.2"/></g><g transform="translate(-174,-38) scale(1,1)"><path fill="#ffffff" stroke="none" d="M 456 241 C 456 231.6111584 478.6096176 224 506.5 224 C 534.3903824 224 557 231.6111584 557 241 C 557 250.3888416 534.3903824 258 506.5 258 C 478.6096176 258 456 250.3888416 456 241 Z"/></g><g transform="translate(-174,-38) scale(1,1)"><path fill="none" stroke="#000000" d="M 456 241 C 456 231.6111584 478.6096176 224 506.5 224 C 534.3903824 224 557 231.6111584 557 241 C 557 250.3888416 534.3903824 258 506.5 258 C 478.6096176 258 456 250.3888416 456 241 Z" stroke-miterlimit="10"/></g><g transform="translate(-174,-38) scale(1,1)"><g><path fill="none" stroke="none"/><text fill="#000000" stroke="none" font-family="Arial" font-size="13px" font-style="normal" font-weight="bold" text-decoration="none" x="493.5" y="248">PUT</text></g></g><g transform="translate(-174,-38) scale(1,1)"><path fill="#C0C0C0" stroke="none" d="M 463 296 C 463 286.6111584 485.6096176 279 513.5 279 C 541.3903824 279 564 286.6111584 564 296 C 564 305.3888416 541.3903824 313 513.5 313 C 485.6096176 313 463 305.3888416 463 296 Z" opacity="0.2"/></g><g transform="translate(-174,-38) scale(1,1)"><path fill="#ffffff" stroke="none" d="M 456 289 C 456 279.6111584 478.6096176 272 506.5 272 C 534.3903824 272 557 279.6111584 557 289 C 557 298.3888416 534.3903824 306 506.5 306 C 478.6096176 306 456 298.3888416 456 289 Z"/></g><g transform="translate(-174,-38) scale(1,1)"><path fill="none" stroke="#000000" d="M 456 289 C 456 279.6111584 478.6096176 272 506.5 272 C 534.3903824 272 557 279.6111584 557 289 C 557 298.3888416 534.3903824 306 506.5 306 C 478.6096176 306 456 298.3888416 456 289 Z" stroke-miterlimit="10"/></g><g transform="translate(-174,-38) scale(1,1)"><g><path fill="none" stroke="none"/><text fill="#000000" stroke="none" font-family="Arial" font-size="13px" font-style="normal" font-weight="bold" text-decoration="none" x="480.617431640625" y="296">UPDATE</text></g></g><g transform="translate(-174,-38) scale(1,1)"><path fill="#C0C0C0" stroke="none" d="M 463 352 C 463 342.6111584 485.6096176 335 513.5 335 C 541.3903824 335 564 342.6111584 564 352 C 564 361.3888416 541.3903824 369 513.5 369 C 485.6096176 369 463 361.3888416 463 352 Z" opacity="0.2"/></g><g transform="translate(-174,-38) scale(1,1)"><path fill="#ffffff" stroke="none" d="M 456 345 C 456 335.6111584 478.6096176 328 506.5 328 C 534.3903824 328 557 335.6111584 557 345 C 557 354.3888416 534.3903824 362 506.5 362 C 478.6096176 362 456 354.3888416 456 345 Z"/></g><g transform="translate(-174,-38) scale(1,1)"><path fill="none" stroke="#000000" d="M 456 345 C 456 335.6111584 478.6096176 328 506.5 328 C 534.3903824 328 557 335.6111584 557 345 C 557 354.3888416 534.3903824 362 506.5 362 C 478.6096176 362 456 354.3888416 456 345 Z" stroke-miterlimit="10"/></g><g transform="translate(-174,-38) scale(1,1)"><g><path fill="none" stroke="none"/><text fill="#000000" stroke="none" font-family="Arial" font-size="13px" font-style="normal" font-weight="bold" text-decoration="none" x="481.214111328125" y="352">DELETE</text></g></g><g transform="translate(-174,-38) scale(1,1)"><path fill="#C0C0C0" stroke="none" d="M 447 408 C 447 398.6111584 476.5492032 391 513 391 C 549.4507968 391 579 398.6111584 579 408 C 579 417.3888416 549.4507968 425 513 425 C 476.5492032 425 447 417.3888416 447 408 Z" opacity="0.2"/></g><g transform="translate(-174,-38) scale(1,1)"><path fill="#ffffff" stroke="none" d="M 440 401 C 440 391.6111584 469.5492032 384 506 384 C 542.4507968 384 572 391.6111584 572 401 C 572 410.3888416 542.4507968 418 506 418 C 469.5492032 418 440 410.3888416 440 401 Z"/></g><g transform="translate(-174,-38) scale(1,1)"><path fill="none" stroke="#000000" d="M 440 401 C 440 391.6111584 469.5492032 384 506 384 C 542.4507968 384 572 391.6111584 572 401 C 572 410.3888416 542.4507968 418 506 418 C 469.5492032 418 440 410.3888416 440 401 Z" stroke-miterlimit="10"/></g><g transform="translate(-174,-38) scale(1,1)"><g><path fill="none" stroke="none"/><text fill="#000000" stroke="none" font-family="Arial" font-size="13px" font-style="normal" font-weight="bold" text-decoration="none" x="466.266845703125" y="408">Register User</text></g></g><g transform="translate(-174,-38) scale(1,1)"><path fill="none" stroke="#000000" d="M 268 254 L 470 139" stroke-miterlimit="10"/></g><g transform="translate(-174,-38) scale(1,1)"><path fill="none" stroke="#000000" d="M 268 264 L 455 202" stroke-miterlimit="10"/></g><g transform="translate(-174,-38) scale(1,1)"><path fill="none" stroke="#000000" d="M 268 273 L 455 248" stroke-miterlimit="10"/></g><g transform="translate(-174,-38) scale(1,1)"><path fill="none" stroke="#000000" d="M 268 281 L 455 287" stroke-miterlimit="10"/></g><g transform="translate(-174,-38) scale(1,1)"><path fill="none" stroke="#000000" d="M 268 289 L 455 333" stroke-miterlimit="10"/></g><g transform="translate(-174,-38) scale(1,1)"><path fill="none" stroke="#000000" d="M 268 298 L 465 383" stroke-miterlimit="10"/></g><g transform="translate(-174,-38) scale(1,1)"><path fill="#ffffff" stroke="none" d="M 834.6415280539773 257.68 C 834.6415280539773 252.886167936 838.5273703789227 249 843.32080078125 249 C 848.1142311835773 249 852.0000735085227 252.886167936 852.0000735085227 257.68 C 852.0000735085227 262.473832064 848.1142311835773 266.36 843.32080078125 266.36 C 838.5273703789227 266.36 834.6415280539773 262.473832064 834.6415280539773 257.68 Z"/></g><g transform="translate(-174,-38) scale(1,1)"><path fill="none" stroke="#000000" d="M 834.6415280539773 257.68 C 834.6415280539773 252.886167936 838.5273703789227 249 843.32080078125 249 C 848.1142311835773 249 852.0000735085227 252.886167936 852.0000735085227 257.68 C 852.0000735085227 262.473832064 848.1142311835773 266.36 843.32080078125 266.36 C 838.5273703789227 266.36 834.6415280539773 262.473832064 834.6415280539773 257.68 Z" stroke-miterlimit="10"/></g><g transform="translate(-174,-38) scale(1,1)"><path fill="none" stroke="#000000" d="M 843.32080078125 266.36 L 843.32080078125 283.64" stroke-miterlimit="10"/></g><g transform="translate(-174,-38) scale(1,1)"><path fill="none" stroke="#000000" d="M 834.1309825994318 272.84 L 852.5106189630682 272.84" stroke-miterlimit="10"/></g><g transform="translate(-174,-38) scale(1,1)"><path fill="none" stroke="#000000" d="M 843.32080078125 283.64 L 830.5571644176136 301" stroke-miterlimit="10"/></g><g transform="translate(-174,-38) scale(1,1)"><path fill="none" stroke="#000000" d="M 843.32080078125 283.64 L 856.0844371448864 301" stroke-miterlimit="10"/></g><g transform="translate(-174,-38) scale(1,1)"><g><path fill="none" stroke="none"/><text fill="#000000" stroke="none" font-family="Arial" font-size="13px" font-style="normal" font-weight="bold" text-decoration="none" x="777.20361328125" y="321.5">JavaUniversalBackend</text></g></g><g transform="translate(-174,-38) scale(1,1)"><path fill="none" stroke="#000000" d="M 767 250 L 539 139" stroke-miterlimit="10"/></g><g transform="translate(-174,-38) scale(1,1)"><path fill="none" stroke="#000000" d="M 549.9799631837535 139.66363279260315 L 539 139 L 546.2947471765433 147.23326567227815" stroke-miterlimit="10"/></g><g transform="translate(-174,-38) scale(1,1)"><path fill="none" stroke="#000000" d="M 767 264 L 558 201" stroke-miterlimit="10"/></g><g transform="translate(-174,-38) scale(1,1)"><path fill="none" stroke="#000000" d="M 568.9451271390144 199.90264321626486 L 558 201 L 566.5153220441063 207.96342519778585" stroke-miterlimit="10"/></g><g transform="translate(-174,-38) scale(1,1)"><path fill="none" stroke="#000000" d="M 767 277 L 558 248" stroke-miterlimit="10"/></g><g transform="translate(-174,-38) scale(1,1)"><path fill="none" stroke="#000000" d="M 568.6447859511768 245.22717976535984 L 558 248 L 567.4876803212817 253.56632033943106" stroke-miterlimit="10"/></g><g transform="translate(-174,-38) scale(1,1)"><path fill="none" stroke="#000000" d="M 767 287 L 558 289" stroke-miterlimit="10"/></g><g transform="translate(-174,-38) scale(1,1)"><path fill="none" stroke="#000000" d="M 568.1219289539933 284.6934289451687 L 558 289 L 568.2024901985901 293.11207900552427" stroke-miterlimit="10"/></g><g transform="translate(-174,-38) scale(1,1)"><path fill="none" stroke="#000000" d="M 767 300 L 558 336" stroke-miterlimit="10"/></g><g transform="translate(-174,-38) scale(1,1)"><path fill="none" stroke="#000000" d="M 567.3006257990194 330.12646956706476 L 558 336 L 568.7297487703992 338.42332237313104" stroke-miterlimit="10"/></g><g transform="translate(-174,-38) scale(1,1)"><path fill="none" stroke="#000000" d="M 767 313 L 559 383" stroke-miterlimit="10"/></g><g transform="translate(-174,-38) scale(1,1)"><path fill="none" stroke="#000000" d="M 567.2891890000349 375.7688627642879 L 559 383 L 569.9745279275242 383.74815557739896" stroke-miterlimit="10"/></g></g></svg>